<mxfile host="app.diagrams.net" modified="2023-10-04T12:57:10.027Z" agent="Mozilla/5.0 (Windows NT 10.0; Win64; x64) AppleWebKit/537.36 (KHTML, like Gecko) Chrome/117.0.0.0 Safari/537.36" version="22.0.2" etag="1hGbl9Bli0Ez_Wmpw2Sp" type="github">
  <diagram name="PÃ¡gina-1" id="lU5es8fkzkNPKlyNdp-R">
    <mxGraphModel>
      <root>
        <mxCell id="0" />
        <mxCell id="1" parent="0" />
      </root>
    </mxGraphModel>
  </diagram>
</mxfile>
